#N canvas 72 96 1848 984 12;
#X obj 38 479 dac~;
#X obj 36 81 adc~;
#X obj 36 131 hip~ 0.4;
#X obj 35 215 mute-bellow-thresh~ 0.01;
#X obj 36 244 *~;
#X obj 36 156 lop~ 20;
#X obj 36 106 abs~;
#X obj 123 79 partials~ 0.20404 0.03935 1 0.5 1.5 0.0068 2.23776 0.0056
5 0.01375, f 68;
#X obj 37 391 reverbA~;
#X obj 90 336 loadbang;
#X msg 90 365 127;
#X obj 924 335 sel 0 1 2 3 4 5 6;
#X obj 898 131 loadbang, f 11;
#N canvas 564 201 450 300 counter 0;
#X obj 311 56 inlet;
#X obj 163 266 outlet;
#X obj 173 137 f;
#X obj 232 137 + 1;
#X obj 172 208 mod 4;
#X obj 162 40 inlet;
#X obj 208 55 loadbang;
#X msg 202 89 1;
#X connect 0 0 4 1;
#X connect 2 0 3 0;
#X connect 2 0 4 0;
#X connect 3 0 2 1;
#X connect 4 0 1 0;
#X connect 5 0 2 0;
#X connect 6 0 7 0;
#X connect 7 0 2 0;
#X restore 904 253 pd counter;
#X msg 984 189 8;
#X obj 981 140 loadbang;
#X obj 944 163 tgl 15 0 empty empty empty 17 7 0 10 -262144 -1 -1 0
1;
#X obj 769 365 notein;
#X floatatom 769 388 5 0 0 0 - - -;
#X obj 944 473 mtof;
#X obj 56 307 delwrite~ \$0-delay 2000;
#X obj 223 187 delread~ \$0-delay;
#X obj 223 134 loadbang;
#X msg 223 159 1000;
#X obj 36 271 +~;
#X obj 222 244 *~ 0.5;
#X msg 944 384 0;
#X msg 992 385 3;
#X msg 1048 382 6;
#X msg 1100 386 9;
#X msg 1151 385 8;
#X msg 1187 384 5;
#X msg 1240 382 2;
#X msg 1286 377 -1;
#X obj 36 181 *~ 1;
#X floatatom 944 416 5 0 0 0 - - -;
#X obj 905 219 metro 8;
#X obj 123 34 r frequence;
#X obj 944 498 s frequence;
#X text 1010 561 ARPEGIATEUR;
#X text 93 551 MELODICA;
#X text 701 438 NOTE DU CONTROLLEUR MIDI;
#X text 132 397 REVERB;
#X text 250 307 DELAY;
#X text 621 78 SYNTHESE ADDITIVE;
#X text 995 257 count from 0 to 7 in loop;
#X text 108 149 "enveloppe" du son du micro;
#X text 1030 191 période des pas de l'arpégiateur en ms;
#X text 1011 472 conversion de la note MIDI note en fréquence en Hz
;
#X text 287 248 aténuation du delay;
#X text 1334 382 selectionne une des 8 notes MIDI à chaque pas;
#X obj 944 445 + 120;
#X connect 1 0 6 0;
#X connect 2 0 5 0;
#X connect 3 0 4 0;
#X connect 4 0 24 0;
#X connect 5 0 34 0;
#X connect 6 0 2 0;
#X connect 7 0 4 1;
#X connect 8 0 0 0;
#X connect 8 0 0 1;
#X connect 9 0 10 0;
#X connect 10 0 8 1;
#X connect 11 0 26 0;
#X connect 11 1 27 0;
#X connect 11 2 28 0;
#X connect 11 3 29 0;
#X connect 11 4 30 0;
#X connect 11 5 31 0;
#X connect 11 6 32 0;
#X connect 11 7 33 0;
#X connect 12 0 36 0;
#X connect 13 0 11 0;
#X connect 14 0 13 1;
#X connect 15 0 14 0;
#X connect 16 0 36 0;
#X connect 17 0 18 0;
#X connect 18 0 51 1;
#X connect 19 0 38 0;
#X connect 21 0 25 0;
#X connect 22 0 23 0;
#X connect 23 0 21 0;
#X connect 24 0 8 0;
#X connect 24 0 20 0;
#X connect 25 0 24 1;
#X connect 26 0 35 0;
#X connect 27 0 35 0;
#X connect 28 0 35 0;
#X connect 29 0 35 0;
#X connect 30 0 35 0;
#X connect 31 0 35 0;
#X connect 32 0 35 0;
#X connect 33 0 35 0;
#X connect 34 0 3 0;
#X connect 35 0 51 0;
#X connect 36 0 13 0;
#X connect 37 0 7 0;
#X connect 51 0 19 0;
