#N canvas 72 96 1848 984 12;
#X obj 163 139 osc~;
#X obj 162 221 outlet~;
#X obj 163 27 inlet;
#X obj 163 111 * \$1;
#X obj 162 166 *~ \$2;
#X obj 213 139 osc~;
#X obj 263 139 osc~;
#X obj 313 139 osc~;
#X obj 363 139 osc~;
#X obj 213 111 * \$3;
#X obj 212 166 *~ \$4;
#X obj 263 111 * \$5;
#X obj 262 166 *~ \$6;
#X obj 313 111 * \$7;
#X obj 312 166 *~ \$8;
#X obj 363 111 * \$9;
#X obj 362 166 *~ \$10;
#X connect 0 0 4 0;
#X connect 2 0 3 0;
#X connect 2 0 9 0;
#X connect 2 0 11 0;
#X connect 2 0 13 0;
#X connect 2 0 15 0;
#X connect 3 0 0 0;
#X connect 4 0 1 0;
#X connect 5 0 10 0;
#X connect 6 0 12 0;
#X connect 7 0 14 0;
#X connect 8 0 16 0;
#X connect 9 0 5 0;
#X connect 10 0 1 0;
#X connect 11 0 6 0;
#X connect 12 0 1 0;
#X connect 13 0 7 0;
#X connect 14 0 1 0;
#X connect 15 0 8 0;
#X connect 16 0 1 0;
